<svg width="45" height="42" viewBox="0 0 45 42" fill="none" xmlns="http://www.w3.org/2000/svg">
<path d="M32.625 1C39.0039 1 44 5.97598 44 12.375C44 16.2875 42.2444 19.9263 38.9521 23.9541C35.6489 27.9953 30.9042 32.3056 25.0908 37.5771L25.0889 37.5781L22.5 39.9346L19.9111 37.5781L19.9092 37.5771L17.7803 35.6436C12.9324 31.2318 8.93819 27.4902 6.04785 23.9541C2.75561 19.9263 1 16.2875 1 12.375C1 5.97598 5.99609 1 12.375 1C15.9876 1 19.4717 2.68679 21.7412 5.33105L22.5 6.21582L23.2588 5.33105C25.5283 2.68679 29.0124 1 32.625 1Z" stroke="#212121" stroke-width="2"/>
</svg>
