<svg width="61" height="61" viewBox="0 0 61 61" fill="none" xmlns="http://www.w3.org/2000/svg">
<path d="M60.5292 14.9977C56.7328 7.43234 54.1724 3.2175 52.9181 2.47102C51.9259 1.88398 50.2105 1.71945 47.0102 1.45641C44.6144 1.26039 41.6345 1.01562 40.299 0.492578L39.0396 0L38.1682 1.03797C38.1022 1.11414 34.9477 4.72164 30.4698 4.72164C25.9634 4.72164 22.7977 1.07453 22.7663 1.03695L21.8898 0.0101562L20.6375 0.493594C19.302 1.01766 16.3231 1.26141 13.9283 1.45641C10.727 1.71945 9.01062 1.88398 8.02141 2.47C6.76305 3.2175 4.20266 7.43234 0.408281 14.9977L0 15.8102L0.3575 16.6481C3.70906 24.5223 11.6127 26.2539 11.9478 26.324L12.9959 26.5423L11.9255 55.0225L11.8818 56.1925L12.8802 56.7765C22.3539 62.3228 38.5805 62.3228 48.0553 56.7765L49.0537 56.1925L49.009 55.0225L47.9385 26.5423L48.9866 26.324C49.3218 26.2539 57.2254 24.5223 60.578 16.6481L60.9375 15.8102L60.5292 14.9977ZM55.4166 17.9664C53.2441 20.7513 50.572 22.292 47.4591 22.5601L45.7823 19.9012L47.1057 55.0956C37.9052 60.4815 23.0323 60.4825 13.8308 55.0956L15.1531 19.9012L13.5342 22.4961C10.4234 22.228 7.74922 20.6852 5.57984 17.9034C4.6016 16.633 3.79977 15.236 3.19617 13.7505L3.13219 13.8724C4.78461 10.6844 7.95438 4.75414 8.98117 4.14375C10.2314 3.40234 16.6004 3.445 20.1165 2.64469C21.0587 3.6048 22.094 4.46894 23.207 5.22438C24.2371 5.92165 25.3452 6.496 26.5088 6.9357C27.9155 7.45774 29.3282 7.7218 30.7176 7.7218H30.7582C32.4391 7.71367 34.0895 7.32062 35.6657 6.54875C37.4055 5.69766 39.0721 4.36922 40.6321 2.60609C44.1076 3.44805 50.6827 3.38914 51.9553 4.14375C52.978 4.75312 56.1316 10.6458 57.7891 13.842C57.1878 15.3174 56.3897 16.7048 55.4166 17.9664Z" fill="#C3BDB0"/>
</svg>
